<?xml version="1.0" encoding="utf-8"?>
<!-- Generator: Adobe Illustrator 16.0.0, SVG Export Plug-In . SVG Version: 6.00 Build 0)  -->
<!DOCTYPE svg PUBLIC "-//W3C//DTD SVG 1.1//EN" "http://www.w3.org/Graphics/SVG/1.1/DTD/svg11.dtd">
<svg version="1.1" id="Layer_1" xmlns="http://www.w3.org/2000/svg" xmlns:xlink="http://www.w3.org/1999/xlink" x="0px" y="0px"
	 width="125px" height="125px" viewBox="0 0 125 125" enable-background="new 0 0 125 125" xml:space="preserve">
<g>
	<g>
		<path fill="#C95A51" d="M62.5,125C28.037,125,0,96.962,0,62.5C0,28.037,28.037,0,62.5,0S125,28.037,125,62.5
			C125,96.962,96.963,125,62.5,125z M62.5,3.205c-32.695,0-59.295,26.6-59.295,59.295c0,32.694,26.6,59.295,59.295,59.295
			s59.295-26.601,59.295-59.295C121.795,29.805,95.195,3.205,62.5,3.205z"/>
	</g>
	<g>
		<g>
			<path fill="#C95A51" d="M19.962,35.315v54.368h85.076V35.315H19.962z M102.018,38.336v7.551H22.982v-7.551H102.018z
				 M22.982,86.663V48.907h79.035v37.756H22.982z"/>
		</g>
		<g>
			<circle fill="#C95A51" cx="27.513" cy="42.363" r="2.517"/>
		</g>
		<g>
			<circle fill="#C95A51" cx="35.063" cy="42.363" r="2.517"/>
		</g>
		<g>
			<circle fill="#C95A51" cx="42.614" cy="42.363" r="2.517"/>
		</g>
	</g>
</g>
<g>
</g>
<g>
</g>
<g>
</g>
<g>
</g>
<g>
</g>
<g>
</g>
<g>
</g>
<g>
</g>
<g>
</g>
<g>
</g>
<g>
</g>
<g>
</g>
<g>
</g>
<g>
</g>
<g>
</g>
</svg>
