<?xml version="1.0" encoding="utf-8"?>
<!-- Generator: Adobe Illustrator 16.0.0, SVG Export Plug-In . SVG Version: 6.00 Build 0)  -->
<!DOCTYPE svg PUBLIC "-//W3C//DTD SVG 1.1//EN" "http://www.w3.org/Graphics/SVG/1.1/DTD/svg11.dtd">
<svg version="1.1" id="Layer_1" xmlns="http://www.w3.org/2000/svg" xmlns:xlink="http://www.w3.org/1999/xlink" x="0px" y="0px"
	 width="125px" height="125px" viewBox="0 0 125 125" enable-background="new 0 0 125 125" xml:space="preserve">
<g>
	<g>
		<path fill="#C95A51" d="M62.5,125C28.038,125,0,96.963,0,62.5C0,28.038,28.038,0,62.5,0C96.963,0,125,28.038,125,62.5
			C125,96.963,96.963,125,62.5,125z M62.5,3.205c-32.695,0-59.295,26.6-59.295,59.295s26.6,59.295,59.295,59.295
			s59.295-26.6,59.295-59.295S95.195,3.205,62.5,3.205z"/>
	</g>
	<g>
		<g>
			<polygon fill="#C95A51" points="95.688,39.664 29.312,39.664 62.5,60.605 			"/>
		</g>
		<g>
			<polygon fill="#C95A51" points="62.5,64.395 26.309,41.558 26.309,85.337 98.691,85.337 98.691,41.558 			"/>
		</g>
	</g>
</g>
<g>
</g>
<g>
</g>
<g>
</g>
<g>
</g>
<g>
</g>
<g>
</g>
<g>
</g>
<g>
</g>
<g>
</g>
<g>
</g>
<g>
</g>
<g>
</g>
<g>
</g>
<g>
</g>
<g>
</g>
</svg>
