<?xml version="1.0" encoding="utf-8"?>
<!-- Generator: Adobe Illustrator 16.0.0, SVG Export Plug-In . SVG Version: 6.00 Build 0)  -->
<!DOCTYPE svg PUBLIC "-//W3C//DTD SVG 1.1//EN" "http://www.w3.org/Graphics/SVG/1.1/DTD/svg11.dtd">
<svg version="1.1" id="Layer_1" xmlns="http://www.w3.org/2000/svg" xmlns:xlink="http://www.w3.org/1999/xlink" x="0px" y="0px"
	 width="125px" height="125px" viewBox="0 0 125 125" enable-background="new 0 0 125 125" xml:space="preserve">
<g>
	<g id="Github__x28_alt_x29__3_">
		<path fill="#C95A51" d="M81.523,30.808c1.075,2.441,1.771,6.495,0.731,9.462c4.249,3.628,5.71,12.446,3.658,19.653
			c6.056,0.462,13.268-0.222,17.924,1.637c-4.353-0.56-10.296-1.658-15.91-1.276c-1.064,0.074-2.64-0.039-2.562,1.458
			c6.498,0.509,12.956,1.065,18.292,2.73c-5.291-0.865-11.716-2.181-18.292-2.365c-2.716,5.36-8.183,7.995-15.729,8.55
			c0.811,1.765,2.364,2.437,2.745,5.276c0.565,4.241-0.887,10.454,0.545,13.281c0.688,1.355,1.807,1.391,2.562,2.55
			c-1.848,2.188-6.431-0.246-6.952-2.55c-0.894-3.945,1.361-10.062-1.097-12.735c0.174,4.303-1.018,10.347,0.184,14.191
			c0.474,1.512,1.839,2.095,1.464,3.459C60.496,95,64.084,83.01,62.682,75.933c-1.295,0.091-0.727,1.941-0.73,2.729
			c-0.037,6.912,1.414,16.392-6.036,15.467c-0.218-1.451,0.999-1.947,1.463-3.273c1.36-3.889-0.255-9.684,0.369-14.377
			c-2.843,2.144,0.298,9.626-1.464,13.464c-1.016,2.208-4.286,3.169-6.767,2.184c0.322-1.645,2.021-1.38,2.741-2.912
			c1.006-2.136,0.007-5.211,0.367-8.369c-5.264,1.051-9.345-0.152-11.342-3.457c-0.894-1.484-1.116-3.233-2.196-4.549
			c-1.075-1.314-2.792-1.491-3.29-3.273c6.518-1.568,6.767,6.708,12.622,6.913c1.794,0.064,2.727-0.52,4.389-0.908
			c0.465-2.088,1.46-3.645,2.927-4.733c-7.283-0.998-13.299-3.266-16.096-8.73c-6.622,0.326-12.681,1.209-18.293,2.546
			c5.093-1.852,11.377-2.514,18.11-2.731c-0.397-2.385-3.876-1.728-6.036-1.638c-4.013,0.178-9.065,0.677-12.255,1.276
			c4.625-1.648,11.113-1.443,17.378-1.456c-1.916-6.008-1.253-15.551,2.926-19.105c-1.183-2.984-0.816-7.867,0.732-10.191
			c4.665,0.21,7.494,2.245,10.426,4.186c3.635-1.034,7.457-1.547,12.437-1.274c2.097,0.117,4.274,1.057,5.852,0.908
			c1.548-0.145,3.255-1.883,4.756-2.545C77.628,31.219,79.284,30.889,81.523,30.808z"/>
	</g>
	<g>
		<path fill="#C95A51" d="M62.5,125C28.038,125,0,96.963,0,62.5C0,28.038,28.038,0,62.5,0C96.963,0,125,28.038,125,62.5
			C125,96.963,96.963,125,62.5,125z M62.5,3.205c-32.695,0-59.295,26.6-59.295,59.295s26.6,59.295,59.295,59.295
			s59.295-26.6,59.295-59.295S95.195,3.205,62.5,3.205z"/>
	</g>
</g>
<g>
</g>
<g>
</g>
<g>
</g>
<g>
</g>
<g>
</g>
<g>
</g>
<g>
</g>
<g>
</g>
<g>
</g>
<g>
</g>
<g>
</g>
<g>
</g>
<g>
</g>
<g>
</g>
<g>
</g>
</svg>
