<?xml version="1.0" encoding="utf-8"?>
<!-- Generator: Adobe Illustrator 16.0.0, SVG Export Plug-In . SVG Version: 6.00 Build 0)  -->
<!DOCTYPE svg PUBLIC "-//W3C//DTD SVG 1.1//EN" "http://www.w3.org/Graphics/SVG/1.1/DTD/svg11.dtd">
<svg version="1.1" id="Layer_1" xmlns="http://www.w3.org/2000/svg" xmlns:xlink="http://www.w3.org/1999/xlink" x="0px" y="0px"
	 width="125px" height="125px" viewBox="0 0 125 125" enable-background="new 0 0 125 125" xml:space="preserve">
<g>
	<g>
		<path fill="#C95A51" d="M62.5,125C28.037,125,0,96.963,0,62.5C0,28.038,28.037,0,62.5,0C96.963,0,125,28.038,125,62.5
			C125,96.963,96.963,125,62.5,125z M62.5,3.205c-32.695,0-59.295,26.6-59.295,59.295s26.6,59.295,59.295,59.295
			c32.696,0,59.295-26.6,59.295-59.295S95.195,3.205,62.5,3.205z"/>
	</g>
	<g>
		<g>
			<path fill="#C95A51" d="M89.115,104.166H35.884V20.833h53.231V104.166z M39.089,100.961H85.91V24.039H39.089V100.961z"/>
		</g>
		<g>
			<path fill="#C95A51" d="M62.5,95.471c-2.808,0-5.092-2.285-5.092-5.092c0-2.809,2.285-5.094,5.092-5.094
				c2.808,0,5.092,2.285,5.092,5.094C67.592,93.186,65.308,95.471,62.5,95.471z M62.5,87.77c-1.438,0-2.609,1.17-2.609,2.609
				s1.17,2.609,2.609,2.609c1.438,0,2.609-1.17,2.609-2.609S63.938,87.77,62.5,87.77z"/>
		</g>
		<g>
			<path fill="#C95A51" d="M81.419,81.283H43.58V29.828h37.839V81.283z M46.958,77.904h31.084V33.206H46.958V77.904z"/>
		</g>
	</g>
</g>
<g>
</g>
<g>
</g>
<g>
</g>
<g>
</g>
<g>
</g>
<g>
</g>
<g>
</g>
<g>
</g>
<g>
</g>
<g>
</g>
<g>
</g>
<g>
</g>
<g>
</g>
<g>
</g>
<g>
</g>
</svg>
