<?xml version="1.0" encoding="utf-8"?>
<!-- Generator: Adobe Illustrator 16.0.0, SVG Export Plug-In . SVG Version: 6.00 Build 0)  -->
<!DOCTYPE svg PUBLIC "-//W3C//DTD SVG 1.1//EN" "http://www.w3.org/Graphics/SVG/1.1/DTD/svg11.dtd">
<svg version="1.1" id="Layer_1" xmlns="http://www.w3.org/2000/svg" xmlns:xlink="http://www.w3.org/1999/xlink" x="0px" y="0px"
	 width="214px" height="45px" viewBox="0 0 214 45" enable-background="new 0 0 214 45" xml:space="preserve">
<linearGradient id="SVGID_1_" gradientUnits="userSpaceOnUse" x1="12.6865" y1="42.1299" x2="27.0569" y2="2.6471">
	<stop  offset="0" style="stop-color:#00ABE7"/>
	<stop  offset="0.4431" style="stop-color:#00A5DE"/>
	<stop  offset="1" style="stop-color:#009ACC"/>
</linearGradient>
<polygon fill="url(#SVGID_1_)" points="39.998,7.563 19.999,0.078 0,7.563 0,22.54 19.999,30.023 19.999,30.023 0,37.512 19.999,44
	39.998,36.512 39.998,22.54 20,15.052 "/>
<g>
	<g>
		<path fill="#E8E9E9" d="M0,4.994"/>

			<linearGradient id="SVGID_2_" gradientUnits="userSpaceOnUse" x1="255.5" y1="-368.4336" x2="275.499" y2="-368.4336" gradientTransform="matrix(1 0 0 -1 -255.5 -331)">
			<stop  offset="0" style="stop-color:#00A6E6"/>
			<stop  offset="0.3257" style="stop-color:#009FDD"/>
			<stop  offset="0.8554" style="stop-color:#008AC5"/>
			<stop  offset="1" style="stop-color:#0084BD"/>
		</linearGradient>
		<polygon fill="url(#SVGID_2_)" points="19.999,29.945 19.999,44.922 0,37.434 		"/>

			<linearGradient id="SVGID_3_" gradientUnits="userSpaceOnUse" x1="274.2021" y1="-346.0977" x2="276.8083" y2="-360.8775" gradientTransform="matrix(1 0 0 -1 -255.5 -331)">
			<stop  offset="0" style="stop-color:#0084BD"/>
			<stop  offset="0.1446" style="stop-color:#008AC5"/>
			<stop  offset="0.6743" style="stop-color:#009FDD"/>
			<stop  offset="1" style="stop-color:#00A6E6"/>
		</linearGradient>
		<polygon fill="url(#SVGID_3_)" points="19.81,14.903 0,22.462 20.297,30.057 39.998,22.462 		"/>

			<linearGradient id="SVGID_4_" gradientUnits="userSpaceOnUse" x1="273.0938" y1="-331.8765" x2="277.9071" y2="-345.101" gradientTransform="matrix(1 0 0 -1 -255.5 -331)">
			<stop  offset="0" style="stop-color:#00AFE9"/>
			<stop  offset="0.4204" style="stop-color:#00A9E0"/>
			<stop  offset="1" style="stop-color:#009ACC"/>
		</linearGradient>
		<polygon fill="url(#SVGID_4_)" points="19.999,0 0,7.485 19.729,15.075 39.998,7.485 		"/>

			<linearGradient id="SVGID_5_" gradientUnits="userSpaceOnUse" x1="265.5332" y1="-349.8091" x2="260.7195" y2="-336.5836" gradientTransform="matrix(1 0 0 -1 -255.5 -331)">
			<stop  offset="0" style="stop-color:#00A6E6"/>
			<stop  offset="0.3585" style="stop-color:#00A1DD"/>
			<stop  offset="0.9415" style="stop-color:#0094C5"/>
			<stop  offset="1" style="stop-color:#0092C2"/>
		</linearGradient>
		<polygon fill="url(#SVGID_5_)" points="0,22.462 0,7.485 19.999,14.974 		"/>

			<linearGradient id="SVGID_6_" gradientUnits="userSpaceOnUse" x1="283.0586" y1="-357.9888" x2="287.9377" y2="-371.3941" gradientTransform="matrix(1 0 0 -1 -255.5 -331)">
			<stop  offset="0" style="stop-color:#00ABE7"/>
			<stop  offset="0.4431" style="stop-color:#00A5DE"/>
			<stop  offset="1" style="stop-color:#009ACC"/>
		</linearGradient>
		<polygon fill="url(#SVGID_6_)" points="19.999,29.945 19.999,44.922 39.998,37.434 39.998,22.462 		"/>
	</g>
</g>
<g enable-background="new    ">
	<path fill="#FFFFFF" d="M63.622,19.358c-1.8,0-3.096-0.168-4.249-0.433c-0.24-0.048-0.456-0.216-0.456-0.479v-1.729
		c0-0.264,0.216-0.456,0.456-0.456c0.024,0,0.024,0,0.048,0c0.96,0.12,3.36,0.24,4.248,0.24c2.136,0,2.784-0.769,2.784-2.16
		c0-0.937-0.456-1.416-2.04-2.353l-3.168-1.896c-2.232-1.319-2.832-2.712-2.832-4.392c0-2.641,1.536-4.561,6-4.561
		c1.584,0,3.792,0.24,4.608,0.432c0.24,0.048,0.432,0.216,0.432,0.456v1.776c0,0.24-0.168,0.432-0.408,0.432
		c-0.024,0-0.024,0-0.048,0c-1.584-0.144-3.168-0.239-4.729-0.239c-1.776,0-2.52,0.624-2.52,1.704c0,0.792,0.408,1.271,1.968,2.136
		l2.88,1.608c2.641,1.464,3.336,3,3.336,4.896C69.934,16.766,68.422,19.358,63.622,19.358z"/>
	<path fill="#FFFFFF" d="M85.27,1.885l-5.112,10.2v6.601c0,0.265-0.192,0.48-0.456,0.48h-2.473c-0.264,0-0.432-0.216-0.432-0.48
		v-6.601l-5.113-10.2c-0.048-0.097-0.072-0.168-0.072-0.24c0-0.192,0.168-0.312,0.384-0.312h2.736c0.216,0,0.336,0.192,0.432,0.385
		l3.312,7.057l3.312-7.057c0.096-0.192,0.24-0.385,0.456-0.385h2.712c0.216,0,0.384,0.12,0.384,0.312
		C85.342,1.717,85.318,1.788,85.27,1.885z"/>
	<path fill="#FFFFFF" d="M97.846,18.974c-0.36,0.097-1.944,0.385-3.792,0.385c-2.88,0-6.792-1.416-6.792-7.345V8.485
		c0-6.024,3.912-7.345,6.792-7.345c1.848,0,3.432,0.288,3.792,0.384c0.312,0.096,0.528,0.216,0.528,0.552v1.608
		c0,0.288-0.12,0.504-0.48,0.504c0,0-0.024,0-0.048,0c-0.84-0.071-2.473-0.191-3.745-0.191c-2.016,0-3.48,1.08-3.48,4.488v3.528
		c0,3.336,1.464,4.488,3.48,4.488c1.272,0,2.904-0.12,3.745-0.192c0.024,0,0.048,0,0.048,0c0.36,0,0.48,0.216,0.48,0.504v1.608
		C98.374,18.758,98.158,18.878,97.846,18.974z"/>
	<path fill="#FFFFFF" d="M107.613,19.358c-3.961,0-6.841-2.209-6.841-7.489v-3.24c0-5.28,2.88-7.488,6.841-7.488
		c3.96,0,6.84,2.208,6.84,7.488v3.24C114.453,17.149,111.573,19.358,107.613,19.358z M111.093,8.629
		c0-3.168-1.128-4.584-3.479-4.584c-2.353,0-3.48,1.416-3.48,4.584v3.24c0,3.169,1.128,4.585,3.48,4.585
		c2.352,0,3.479-1.416,3.479-4.585V8.629z"/>
</g>
<g enable-background="new    ">
	<path fill="#FFFFFF" d="M70.15,29.117h-4.2v14.568c0,0.265-0.216,0.48-0.48,0.48h-2.376c-0.264,0-0.48-0.216-0.48-0.48V29.117h-4.2
		c-0.264,0-0.48-0.169-0.48-0.433v-1.896c0-0.264,0.216-0.456,0.48-0.456H70.15c0.264,0,0.48,0.192,0.48,0.456v1.896
		C70.63,28.948,70.414,29.117,70.15,29.117z"/>
	<path fill="#FFFFFF" d="M83.134,44.022c-0.768,0.119-1.704,0.336-4.56,0.336c-3.121,0-5.544-0.841-5.544-4.921v-8.377
		c0-4.08,2.424-4.92,5.544-4.92c2.856,0,3.792,0.216,4.56,0.336c0.36,0.048,0.48,0.168,0.48,0.504v1.536
		c0,0.264-0.216,0.48-0.48,0.48h-4.896c-1.392,0-1.896,0.479-1.896,2.063v2.593h6.505c0.264,0,0.48,0.216,0.48,0.479v1.729
		c0,0.264-0.216,0.48-0.48,0.48h-6.505v3.096c0,1.584,0.504,2.064,1.896,2.064h4.896c0.264,0,0.48,0.216,0.48,0.479v1.536
		C83.614,43.854,83.494,43.974,83.134,44.022z"/>
	<path fill="#FFFFFF" d="M96.958,43.974c-0.36,0.097-1.944,0.385-3.792,0.385c-2.88,0-6.792-1.416-6.792-7.345v-3.528
		c0-6.024,3.912-7.345,6.792-7.345c1.848,0,3.432,0.288,3.792,0.384c0.312,0.096,0.528,0.216,0.528,0.552v1.608
		c0,0.288-0.12,0.504-0.48,0.504c0,0-0.024,0-0.048,0c-0.84-0.071-2.473-0.191-3.745-0.191c-2.016,0-3.48,1.08-3.48,4.488v3.528
		c0,3.336,1.464,4.488,3.48,4.488c1.272,0,2.904-0.12,3.745-0.192c0.024,0,0.048,0,0.048,0c0.36,0,0.48,0.216,0.48,0.504v1.608
		C97.486,43.758,97.27,43.878,96.958,43.974z"/>
	<path fill="#FFFFFF" d="M113.374,44.166h-2.377c-0.264,0-0.479-0.216-0.479-0.48v-7.344h-6.816v7.344c0,0.265-0.216,0.48-0.48,0.48
		h-2.376c-0.264,0-0.48-0.216-0.48-0.48V26.788c0-0.264,0.217-0.456,0.48-0.456h2.376c0.265,0,0.48,0.192,0.48,0.456v6.625h6.816
		v-6.625c0-0.264,0.216-0.456,0.479-0.456h2.377c0.264,0,0.479,0.192,0.479,0.456v16.897
		C113.854,43.95,113.638,44.166,113.374,44.166z"/>
	<path fill="#FFFFFF" d="M130.27,44.166h-2.472c-0.265,0-0.433-0.216-0.433-0.48V32.861c0-2.736-0.96-3.841-3.265-3.841
		c-1.199,0-2.52,0.097-3.312,0.192v14.473c0,0.265-0.192,0.48-0.456,0.48h-2.425c-0.264,0-0.456-0.216-0.456-0.48V27.772
		c0-0.888,0.265-1.104,1.009-1.224c1.296-0.192,3.912-0.408,5.304-0.408c4.465,0,6.961,1.608,6.961,6.721v10.824
		C130.726,43.95,130.533,44.166,130.27,44.166z"/>
	<path fill="#FFFFFF" d="M140.565,44.358c-3.961,0-6.841-2.209-6.841-7.489v-3.24c0-5.28,2.88-7.488,6.841-7.488
		c3.96,0,6.84,2.208,6.84,7.488v3.24C147.405,42.149,144.525,44.358,140.565,44.358z M144.045,33.629
		c0-3.168-1.128-4.584-3.479-4.584c-2.353,0-3.48,1.416-3.48,4.584v3.24c0,3.169,1.128,4.585,3.48,4.585
		c2.352,0,3.479-1.416,3.479-4.585V33.629z"/>
	<path fill="#FFFFFF" d="M160.148,44.022c-0.72,0.168-2.808,0.336-4.08,0.336c-3.12,0-5.545-0.841-5.545-4.921V26.812
		c0-0.264,0.217-0.48,0.48-0.48h2.376c0.265,0,0.48,0.217,0.48,0.48v12.625c0,1.584,0.479,2.064,1.872,2.064h4.416
		c0.265,0,0.48,0.216,0.48,0.479v1.536C160.629,43.854,160.509,43.95,160.148,44.022z"/>
	<path fill="#FFFFFF" d="M169.269,44.358c-3.961,0-6.841-2.209-6.841-7.489v-3.24c0-5.28,2.88-7.488,6.841-7.488
		c3.96,0,6.84,2.208,6.84,7.488v3.24C176.108,42.149,173.229,44.358,169.269,44.358z M172.748,33.629
		c0-3.168-1.128-4.584-3.479-4.584c-2.353,0-3.48,1.416-3.48,4.584v3.24c0,3.169,1.128,4.585,3.48,4.585
		c2.352,0,3.479-1.416,3.479-4.585V33.629z"/>
	<path fill="#FFFFFF" d="M190.413,43.95c-1.2,0.24-2.761,0.408-5.232,0.408c-2.593,0-6.433-1.704-6.433-7.369v-3.456
		c0-5.688,3.648-7.393,6.504-7.393c2.305,0,4.369,0.288,5.161,0.432c0.312,0.072,0.456,0.192,0.456,0.504v1.608
		c0,0.336-0.097,0.504-0.48,0.504c-0.023,0-0.048,0-0.072,0c-1.104-0.096-2.76-0.191-5.064-0.191c-1.607,0-3.144,1.128-3.144,4.536
		v3.456c0,3.408,1.656,4.513,3.072,4.513c0.888,0,1.632-0.024,2.376-0.072v-6.12c0-0.265,0.192-0.48,0.456-0.48h2.376
		c0.265,0,0.48,0.216,0.48,0.48v8.064C190.869,43.686,190.725,43.878,190.413,43.95z"/>
	<path fill="#FFFFFF" d="M206.924,26.885l-5.112,10.2v6.601c0,0.265-0.191,0.48-0.456,0.48h-2.472c-0.265,0-0.433-0.216-0.433-0.48
		v-6.601l-5.112-10.2c-0.048-0.097-0.072-0.168-0.072-0.24c0-0.192,0.168-0.312,0.385-0.312h2.736c0.216,0,0.336,0.192,0.432,0.385
		l3.312,7.057l3.312-7.057c0.096-0.192,0.239-0.385,0.456-0.385h2.712c0.216,0,0.384,0.12,0.384,0.312
		C206.996,26.717,206.973,26.788,206.924,26.885z"/>
</g>
</svg>
