<?xml version="1.0" encoding="utf-8"?>
<!-- Generator: Adobe Illustrator 16.0.0, SVG Export Plug-In . SVG Version: 6.00 Build 0)  -->
<!DOCTYPE svg PUBLIC "-//W3C//DTD SVG 1.1//EN" "http://www.w3.org/Graphics/SVG/1.1/DTD/svg11.dtd">
<svg version="1.1" id="Layer_1" xmlns="http://www.w3.org/2000/svg" xmlns:xlink="http://www.w3.org/1999/xlink" x="0px" y="0px"
	 width="125px" height="125px" viewBox="0 0 125 125" enable-background="new 0 0 125 125" xml:space="preserve">
<g>
	<g>
		<path fill="#C95A51" d="M53.37,89.422c-12.174,0-22.117-5.846-22.28-5.943c-0.952-0.573-1.37-1.736-1.003-2.786
			c0.368-1.046,1.409-1.709,2.526-1.542c6.594,0.881,11.185-1.196,13.643-2.839c-6.095-4.62-19.741-17.655-11.369-36.983
			c0.343-0.796,1.104-1.339,1.968-1.406c0.845-0.06,1.699,0.35,2.163,1.082c0.25,0.391,6.12,9.223,20.793,11.073
			c0.033-8.001,6.55-14.499,14.552-14.499c3.57,0,6.936,1.281,9.599,3.633c3.852-0.409,6.884-0.498,7.024-0.502
			c0.318,0.002,0.619,0.044,0.893,0.149c0.517-0.19,1.096-0.204,1.654,0.003c1.209,0.457,1.818,1.808,1.362,3.017
			c-0.449,1.191-2.606,6.624-5.541,9.402c0.732,6.759-0.945,16.692-11.78,27.85C69.915,87.015,61.183,89.422,53.37,89.422z"/>
	</g>
	<g>
		<path fill="#C95A51" d="M62.5,125C28.038,125,0,96.963,0,62.5C0,28.038,28.038,0,62.5,0C96.963,0,125,28.038,125,62.5
			C125,96.963,96.963,125,62.5,125z M62.5,3.205c-32.695,0-59.295,26.6-59.295,59.295s26.6,59.295,59.295,59.295
			c32.696,0,59.295-26.6,59.295-59.295S95.196,3.205,62.5,3.205z"/>
	</g>
</g>
<g>
</g>
<g>
</g>
<g>
</g>
<g>
</g>
<g>
</g>
<g>
</g>
<g>
</g>
<g>
</g>
<g>
</g>
<g>
</g>
<g>
</g>
<g>
</g>
<g>
</g>
<g>
</g>
<g>
</g>
</svg>
