<?xml version="1.0" encoding="utf-8"?>
<!-- Generator: Adobe Illustrator 16.0.0, SVG Export Plug-In . SVG Version: 6.00 Build 0)  -->
<!DOCTYPE svg PUBLIC "-//W3C//DTD SVG 1.1//EN" "http://www.w3.org/Graphics/SVG/1.1/DTD/svg11.dtd">
<svg version="1.1" id="Layer_1" xmlns="http://www.w3.org/2000/svg" xmlns:xlink="http://www.w3.org/1999/xlink" x="0px" y="0px"
	 width="125px" height="125px" viewBox="0 0 125 125" enable-background="new 0 0 125 125" xml:space="preserve">
<g>
	<g>
		<path fill="#C95A51" d="M62.5,125C28.038,125,0,96.963,0,62.5C0,28.038,28.038,0,62.5,0C96.963,0,125,28.038,125,62.5
			C125,96.963,96.963,125,62.5,125z M62.5,3.206C29.805,3.206,3.206,29.805,3.206,62.5c0,32.697,26.599,59.295,59.294,59.295
			c32.697,0,59.295-26.598,59.295-59.295C121.795,29.805,95.197,3.206,62.5,3.206z"/>
	</g>
	<g>
		<g>
			<path fill="#C95A51" d="M102.83,80.539H22.169V29.256h80.661V80.539z M25.374,77.332h74.253V32.461H25.374V77.332z"/>
		</g>
		<g>
			<path fill="#C95A51" d="M94.817,72.526H30.182V37.269h64.636V72.526z M33.387,69.319h58.226V40.475H33.387V69.319z"/>
		</g>
		<g>
			<path fill="#C95A51" d="M83.602,95.744H41.4V84.937h12.058v-7.604h18.083v7.604h12.061V95.744z M44.604,92.537h35.789V88.14
				H68.338v-7.601H56.664v7.601H44.604V92.537z"/>
		</g>
	</g>
</g>
<g>
</g>
<g>
</g>
<g>
</g>
<g>
</g>
<g>
</g>
<g>
</g>
<g>
</g>
<g>
</g>
<g>
</g>
<g>
</g>
<g>
</g>
<g>
</g>
<g>
</g>
<g>
</g>
<g>
</g>
</svg>
