<?xml version="1.0" encoding="utf-8"?>
<!-- Generator: Adobe Illustrator 16.0.0, SVG Export Plug-In . SVG Version: 6.00 Build 0)  -->
<!DOCTYPE svg PUBLIC "-//W3C//DTD SVG 1.1//EN" "http://www.w3.org/Graphics/SVG/1.1/DTD/svg11.dtd">
<svg version="1.1" id="Layer_1" xmlns="http://www.w3.org/2000/svg" xmlns:xlink="http://www.w3.org/1999/xlink" x="0px" y="0px"
	 width="86px" height="90px" viewBox="0 0 86 90" enable-background="new 0 0 86 90" xml:space="preserve">
<g>
	<path fill="#313642" d="M57.404,45c0-2.224,1.369-3.979,3.431-5.187c-0.371-1.241-0.862-2.43-1.468-3.549
		c-2.312,0.604-4.186-0.301-5.758-1.874c-1.571-1.573-2.053-3.444-1.447-5.756c-1.12-0.605-2.309-1.098-3.553-1.469
		c-1.205,2.062-3.385,3.431-5.608,3.431c-2.223,0-4.402-1.369-5.61-3.431c-1.242,0.371-2.43,0.863-3.549,1.468
		c0.604,2.312,0.124,4.183-1.449,5.756c-1.573,1.573-3.444,2.478-5.756,1.874c-0.605,1.119-1.098,2.308-1.469,3.549
		c2.062,1.207,3.43,2.962,3.43,5.187c0,2.222-1.369,4.403-3.43,5.608c0.371,1.242,0.863,2.433,1.469,3.552
		c2.312-0.604,4.183-0.123,5.756,1.448c1.572,1.572,2.053,3.445,1.449,5.757c1.119,0.604,2.308,1.098,3.55,1.469
		c1.207-2.062,3.386-3.433,5.609-3.433c2.226,0,4.403,1.369,5.608,3.433c1.244-0.371,2.433-0.862,3.553-1.469
		c-0.604-2.312-0.124-4.185,1.447-5.757c1.572-1.571,3.445-2.479,5.758-1.873c0.604-1.12,1.097-2.309,1.468-3.551
		C58.773,48.98,57.404,47.223,57.404,45z M43.001,52.756c-4.283,0-7.755-3.473-7.755-7.755c0-4.284,3.472-7.756,7.755-7.756
		c4.284,0,7.756,3.472,7.756,7.756C50.757,49.283,47.285,52.756,43.001,52.756z"/>
</g>
<path fill="#313642" d="M78.641,18.834L49.223,2.504c-1.701-0.945-3.935-1.465-6.284-1.465c-2.289,0-4.468,0.498-6.136,1.4
	L7.445,18.328c-3.511,1.9-6.261,6.408-6.262,10.263L1.179,60.771c0,3.846,2.727,8.373,6.209,10.308L36.806,87.41
	c1.703,0.943,3.935,1.465,6.285,1.465c2.285,0,4.466-0.497,6.138-1.398l29.355-15.892c3.512-1.899,6.262-6.407,6.262-10.262
	l0.004-32.181C84.852,25.295,82.124,20.768,78.641,18.834z M43.091,85.003c-1.639,0-3.2-0.346-4.285-0.948L9.388,67.725
	c-2.276-1.264-4.199-4.447-4.198-6.953l0.004-32.181c0.001-2.497,1.93-5.651,4.213-6.888L38.764,5.815
	c1.064-0.576,2.585-0.906,4.174-0.906c1.636,0,3.197,0.346,4.285,0.95l29.418,16.33c2.236,1.242,4.198,4.49,4.196,6.952
	l-0.003,32.182c0,2.454-1.969,5.673-4.214,6.886L47.268,84.098C46.202,84.673,44.68,85.003,43.091,85.003z"/>
</svg>
