<?xml version="1.0" encoding="utf-8"?>
<!-- Generator: Adobe Illustrator 16.0.0, SVG Export Plug-In . SVG Version: 6.00 Build 0)  -->
<!DOCTYPE svg PUBLIC "-//W3C//DTD SVG 1.1//EN" "http://www.w3.org/Graphics/SVG/1.1/DTD/svg11.dtd">
<svg version="1.1" id="Layer_1" xmlns="http://www.w3.org/2000/svg" xmlns:xlink="http://www.w3.org/1999/xlink" x="0px" y="0px"
	 width="86px" height="90px" viewBox="0 0 86 90" enable-background="new 0 0 86 90" xml:space="preserve">
<g>
	<ellipse fill="#313642" cx="42.541" cy="33.566" rx="8" ry="9"/>
	<g>
		<path fill="#313642" d="M27.5,58.75c0,1.104,0.896,2,2,2h27c1.104,0,2-0.896,2-2v-8c0-1.104-0.896-2-2-2h-27c-1.104,0-2,0.896-2,2
			V58.75z"/>
	</g>
	<polygon fill="#313642" points="28.281,49.172 39.556,41.75 45.5,41.75 57.468,49 	"/>
</g>
<path fill="#313642" d="M78.641,18.834L49.223,2.504c-1.701-0.945-3.935-1.465-6.284-1.465c-2.289,0-4.468,0.498-6.136,1.4
	L7.445,18.328c-3.511,1.9-6.261,6.408-6.262,10.263L1.179,60.771c0,3.846,2.727,8.373,6.209,10.308L36.806,87.41
	c1.703,0.943,3.935,1.465,6.285,1.465c2.285,0,4.466-0.497,6.138-1.398l29.355-15.892c3.512-1.899,6.262-6.407,6.262-10.262
	l0.004-32.181C84.852,25.295,82.124,20.768,78.641,18.834z M43.091,85.003c-1.639,0-3.2-0.346-4.285-0.948L9.388,67.725
	c-2.276-1.264-4.199-4.447-4.198-6.953l0.004-32.181c0.001-2.497,1.93-5.651,4.213-6.888L38.764,5.815
	c1.064-0.576,2.585-0.906,4.174-0.906c1.636,0,3.197,0.346,4.285,0.95l29.418,16.33c2.236,1.242,4.198,4.49,4.196,6.952
	l-0.003,32.182c0,2.454-1.969,5.673-4.214,6.886L47.268,84.098C46.202,84.673,44.68,85.003,43.091,85.003z"/>
</svg>
